<svg width="145" height="25" viewBox="0 0 145 25" fill="none" xmlns="http://www.w3.org/2000/svg">
<path d="M14.7356 12.016C14.7356 13.594 13.4564 14.8731 11.8785 14.8731C10.3005 14.8731 9.02133 13.594 9.02133 12.016C9.02133 10.438 10.3005 9.15886 11.8785 9.15886C13.4564 9.15886 14.7356 10.438 14.7356 12.016Z" fill="white"/>
<path fill-rule="evenodd" clip-rule="evenodd" d="M11.8785 24.016C17.9239 24.016 22.9251 19.5456 23.757 13.7303H16.7287C16.0227 15.7278 14.1177 17.1589 11.8785 17.1589C9.63924 17.1589 7.73426 15.7278 7.02826 13.7303H0C0.831822 19.5456 5.8331 24.016 11.8785 24.016ZM7.02826 10.3017H0C0.831822 4.48635 5.8331 0.0160012 11.8785 0.0160012C17.9239 0.0160012 22.9251 4.48635 23.757 10.3017H16.7287C16.0227 8.30424 14.1177 6.87314 11.8785 6.87314C9.63924 6.87314 7.73426 8.30424 7.02826 10.3017ZM14.7356 12.016C14.7356 13.594 13.4564 14.8731 11.8785 14.8731C10.3005 14.8731 9.02133 13.594 9.02133 12.016C9.02133 10.438 10.3005 9.15886 11.8785 9.15886C13.4564 9.15886 14.7356 10.438 14.7356 12.016Z" fill="white"/>
<path d="M54.2065 8.592C54.2065 9.568 53.9825 10.464 53.5345 11.28C53.0865 12.08 52.3985 12.728 51.4705 13.224C50.5425 13.72 49.3905 13.968 48.0145 13.968H45.4705V20.016H41.3665V3.168H48.0145C49.3585 3.168 50.4945 3.4 51.4225 3.864C52.3505 4.328 53.0465 4.968 53.5105 5.784C53.9745 6.6 54.2065 7.536 54.2065 8.592ZM47.7025 10.704C48.4865 10.704 49.0705 10.52 49.4545 10.152C49.8385 9.784 50.0305 9.264 50.0305 8.592C50.0305 7.92 49.8385 7.4 49.4545 7.032C49.0705 6.664 48.4865 6.48 47.7025 6.48H45.4705V10.704H47.7025Z" fill="white"/>
<path d="M62.439 20.208C61.127 20.208 59.943 19.928 58.887 19.368C57.847 18.808 57.023 18.008 56.415 16.968C55.823 15.928 55.527 14.712 55.527 13.32C55.527 11.944 55.831 10.736 56.439 9.696C57.047 8.64 57.879 7.832 58.935 7.272C59.991 6.712 61.175 6.432 62.487 6.432C63.799 6.432 64.983 6.712 66.039 7.272C67.095 7.832 67.927 8.64 68.535 9.696C69.143 10.736 69.447 11.944 69.447 13.32C69.447 14.696 69.135 15.912 68.511 16.968C67.903 18.008 67.063 18.808 65.991 19.368C64.935 19.928 63.751 20.208 62.439 20.208ZM62.439 16.656C63.223 16.656 63.887 16.368 64.431 15.792C64.991 15.216 65.271 14.392 65.271 13.32C65.271 12.248 64.999 11.424 64.455 10.848C63.927 10.272 63.271 9.984 62.487 9.984C61.687 9.984 61.023 10.272 60.495 10.848C59.967 11.408 59.703 12.232 59.703 13.32C59.703 14.392 59.959 15.216 60.471 15.792C60.999 16.368 61.655 16.656 62.439 16.656Z" fill="white"/>
<path d="M79.8083 20.016L75.7283 14.4V20.016H71.6243V2.256H75.7283V12.072L79.7843 6.624H84.8483L79.2803 13.344L84.8963 20.016H79.8083Z" fill="white"/>
<path d="M99.0842 13.104C99.0842 13.488 99.0602 13.888 99.0122 14.304H89.7242C89.7882 15.136 90.0522 15.776 90.5162 16.224C90.9962 16.656 91.5802 16.872 92.2682 16.872C93.2922 16.872 94.0042 16.44 94.4042 15.576H98.7722C98.5482 16.456 98.1402 17.248 97.5482 17.952C96.9722 18.656 96.2442 19.208 95.3642 19.608C94.4842 20.008 93.5002 20.208 92.4122 20.208C91.1002 20.208 89.9322 19.928 88.9082 19.368C87.8842 18.808 87.0842 18.008 86.5082 16.968C85.9322 15.928 85.6442 14.712 85.6442 13.32C85.6442 11.928 85.9242 10.712 86.4842 9.672C87.0602 8.632 87.8602 7.832 88.8842 7.272C89.9082 6.712 91.0842 6.432 92.4122 6.432C93.7082 6.432 94.8602 6.704 95.8682 7.248C96.8762 7.792 97.6602 8.568 98.2202 9.576C98.7962 10.584 99.0842 11.76 99.0842 13.104ZM94.8842 12.024C94.8842 11.32 94.6442 10.76 94.1642 10.344C93.6842 9.928 93.0842 9.72 92.3642 9.72C91.6762 9.72 91.0922 9.92 90.6122 10.32C90.1482 10.72 89.8602 11.288 89.7482 12.024H94.8842ZM95.1722 3.192L89.3882 5.616V2.784L95.1722 0V3.192Z" fill="white"/>
<path d="M100.433 13.296C100.433 11.92 100.689 10.712 101.201 9.672C101.729 8.632 102.441 7.832 103.337 7.272C104.233 6.712 105.233 6.432 106.337 6.432C107.217 6.432 108.017 6.616 108.737 6.984C109.473 7.352 110.049 7.848 110.465 8.472V2.256H114.569V20.016H110.465V18.096C110.081 18.736 109.529 19.248 108.809 19.632C108.105 20.016 107.281 20.208 106.337 20.208C105.233 20.208 104.233 19.928 103.337 19.368C102.441 18.792 101.729 17.984 101.201 16.944C100.689 15.888 100.433 14.672 100.433 13.296ZM110.465 13.32C110.465 12.296 110.177 11.488 109.601 10.896C109.041 10.304 108.353 10.008 107.537 10.008C106.721 10.008 106.025 10.304 105.449 10.896C104.889 11.472 104.609 12.272 104.609 13.296C104.609 14.32 104.889 15.136 105.449 15.744C106.025 16.336 106.721 16.632 107.537 16.632C108.353 16.632 109.041 16.336 109.601 15.744C110.177 15.152 110.465 14.344 110.465 13.32Z" fill="white"/>
<path d="M130.162 13.104C130.162 13.488 130.138 13.888 130.09 14.304H120.802C120.866 15.136 121.13 15.776 121.594 16.224C122.074 16.656 122.658 16.872 123.346 16.872C124.37 16.872 125.082 16.44 125.482 15.576H129.85C129.626 16.456 129.218 17.248 128.626 17.952C128.05 18.656 127.322 19.208 126.442 19.608C125.562 20.008 124.578 20.208 123.49 20.208C122.178 20.208 121.01 19.928 119.986 19.368C118.962 18.808 118.162 18.008 117.586 16.968C117.01 15.928 116.722 14.712 116.722 13.32C116.722 11.928 117.002 10.712 117.562 9.672C118.138 8.632 118.938 7.832 119.962 7.272C120.986 6.712 122.162 6.432 123.49 6.432C124.786 6.432 125.938 6.704 126.946 7.248C127.954 7.792 128.738 8.568 129.298 9.576C129.874 10.584 130.162 11.76 130.162 13.104ZM125.962 12.024C125.962 11.32 125.722 10.76 125.242 10.344C124.762 9.928 124.162 9.72 123.442 9.72C122.754 9.72 122.17 9.92 121.69 10.32C121.226 10.72 120.938 11.288 120.826 12.024H125.962Z" fill="white"/>
<path d="M140.247 20.016L137.679 16.296L135.519 20.016H131.079L135.495 13.176L130.959 6.624H135.567L138.135 10.32L140.295 6.624H144.735L140.247 13.368L144.855 20.016H140.247Z" fill="white"/>
</svg>
